<?xml version="1.0" encoding="UTF-8"?><svg id="Ebene_1" xmlns="http://www.w3.org/2000/svg" viewBox="0 0 377.6 377.6"><circle cx="188.8" cy="188.8" r="188.8" style="fill:#fff; stroke-width:0px;"/><path d="m208.1,117.4c0,4.4-3.5,7.9-7.9,7.9s-7.9-3.5-7.9-7.9v-16.2c0-4.4,3.5-7.9,7.9-7.9s7.9,3.5,7.9,7.9v16.2Zm11.3-16.1h0c0-10.6-8.5-19.1-19.1-19.1s-19.1,8.5-19.1,19.1v17.6c0,10.6,8.5,19.1,19.1,19.1,2.8,0,5.5-.6,7.9-1.7v27.2c0,4.4-3.5,7.9-7.9,7.9s-7.9-3.5-7.9-7.9v-17.4c0-2.7-2.7-4.9-5.6-4.9s-5.6,2.6-5.6,5.6v17.1c0,10.6,8.5,19.1,19.1,19.1s19.1-8.5,19.1-19.1v-62.6Z" style="fill:#261b12; stroke-width:0px;"/><path d="m163.3,163.8c0,4.4-3.5,7.9-7.9,7.9s-7.9-3.5-7.9-7.9v-40.1h0c0-4.4,3.5-7.9,7.9-7.9s7.9,3.5,7.9,7.9v40.1Zm11.2-40.5c0-10.6-8.5-19.1-19.1-19.1s-19.1,8.5-19.1,19.1v40.4c0,10.6,8.5,19.1,19.1,19.1s19.1-8.5,19.1-19.1v-40.4Z" style="fill:#261b12; stroke-width:0px;"/><path d="m163.3,251.8c0,4.4-3.5,7.9-7.9,7.9s-7.9-3.5-7.9-7.9v-40.1h0c0-4.4,3.5-7.9,7.9-7.9s7.9,3.5,7.9,7.9v40.1Zm11.2-40.4c0-10.6-8.5-19.1-19.1-19.1s-19.1,8.5-19.1,19.1v40.4c0,10.6,8.5,19.1,19.1,19.1s19.1-8.5,19.1-19.1v-40.4Z" style="fill:#261b12; stroke-width:0px;"/><path d="m129.6,142.6c0-10.6-8.5-19.1-19.1-19.1-9.7,0-17.7,7.3-18.9,16.8-2.4-1.1-5.2-1.8-8-1.8-10.6,0-19.1,8.5-19.1,19.1v19.7c0,3,2.6,5.6,5.6,5.6s5.6-2.6,5.6-5.6v-19.7h0c.1-4.3,3.5-7.8,7.9-7.8s7.8,3.5,7.9,7.8h0v19.7h0c0,3,2.6,5.6,5.6,5.6s5.6-2.6,5.6-5.6v-34.5c0-4.4,3.5-7.9,7.9-7.9s7.9,3.5,7.9,7.9v34.5c0,3,2.6,5.6,5.6,5.6s5.6-2.6,5.6-5.6c-.1,0-.1-34.5-.1-34.7" style="fill:#261b12; stroke-width:0px;"/><path d="m281.8,151.6h0c-.1-2.9-2.6-5.3-5.5-5.3s-5.3,2.4-5.5,5.3h0v12c0,4.4-3.5,7.9-7.9,7.9h-17.5c-4.4,0-7.9-3.5-7.9-7.9v-40.3c0-4.4,3.5-7.9,7.9-7.9s7.9,3.5,7.9,7.9-3.5,7.9-7.9,7.9c-3,0-5.6,2.6-5.6,5.6s2.6,5.6,5.6,5.6c10.6,0,19.1-8.5,19.1-19.1s-8.5-19.1-19.1-19.1-19.1,8.5-19.1,19.1v40.3c0,10.6,8.5,19.1,19.1,19.1h17.5c10.3-.1,18.8-8.3,18.8-18.6v-12.5h.1Z" style="fill:#261b12; stroke-width:0px;"/><path d="m208.3,231.3v41.3c-.4,4.1-3.8,7.3-7.9,7.3-4.4,0-7.9-3.5-7.9-7.9v-40.1h0c0-4.4,3.5-7.9,7.9-7.9,4.1,0,7.5,3.3,7.9,7.3m11.1-33.1c0-3-2.6-5.6-5.6-5.6s-5.6,2.6-5.6,5.6v16.3c-2.4-1.1-5.1-1.7-7.9-1.7-10.6,0-19.1,8.5-19.1,19.1v40.4c0,10.6,8.5,19.1,19.1,19.1s19.1-8.5,19.1-19.1v-74.1" style="fill:#261b12; stroke-width:0px;"/><path d="m129.6,211.8v-1c0-10.2-8.7-18.2-19.1-18.2s-18.2,7.8-18.9,17.5v19.7h0c.4,10.2,8.7,18.5,19.1,18.5s19.1-8.1,19.1-18.3v-.7c0-3-2.6-5.6-5.6-5.6s-5.6,2.6-5.6,5.6v.7c0,4-3.8,7.2-7.9,7.2s-7.5-3.2-7.9-7.2v-18.8c.4-4,3.8-7.2,7.9-7.2s7.9,3.2,7.9,7.2v.7c0,3,2.6,5.6,5.6,5.6,2.8-.3,5.4-2.7,5.4-5.7" style="fill:#261b12; stroke-width:0px;"/><path d="m237.5,227.3v-15.3h0c0-4.4,3.5-8,7.9-8s7.9,3.5,7.9,7.9v15.3c0,4.4-3.5,7.9-7.9,7.9s-7.9-3.4-7.9-7.8m71.3-2.8c0-10.4-8.4-19.1-18.7-19.1-5.5,0-8.5-3.3-8.5-7.3,0-2.8-2.3-5.6-5.3-5.6s-5.6,2.6-5.6,5.6v52.2c0,4.4-3.5,7.9-7.9,7.9h-18.6c-3.8,0-6.9-3.9-6.9-7.9v-5.7c2.4,1.1,5.2,1.7,8,1.7,10.6,0,19.1-8.5,19.1-19.1v-15.7c0-10.6-8.5-19.1-19.1-19.1s-19.2,8.5-19.2,19.1v38.7c0,10.6,8.5,19.1,19.1,19.1h17.7c10.3,0,18.6-8.3,18.8-18.6h0v-35.6s2.1,1.8,7.4,1.8c4.9,0,8.6,3.4,8.6,7.4s-3.8,7.9-8,7.9c-3.5,0-5.1,2.7-5.1,5.6s2.3,5.6,5,5.6h.2c10.3.1,19-8.7,19-18.9" style="fill:#261b12; stroke-width:0px;"/><path d="m276.3,142.3c4.3,0,7.7-3.4,7.7-7.7s-3.4-7.7-7.7-7.7-7.7,3.4-7.7,7.7c0,4.2,3.4,7.7,7.7,7.7" style="fill:#261b12; stroke-width:0px;"/><path d="m70.2,207.9c4.3,0,7.7-3.4,7.7-7.7s-3.4-7.7-7.7-7.7-7.7,3.4-7.7,7.7,3.4,7.7,7.7,7.7" style="fill:#261b12; stroke-width:0px;"/><path d="m301.4,182.8c4.3,0,7.7-3.4,7.7-7.7s-3.4-7.7-7.7-7.7-7.7,3.4-7.7,7.7c0,4.3,3.5,7.7,7.7,7.7" style="fill:#261b12; stroke-width:0px;"/></svg>