<?xml version="1.0" encoding="UTF-8"?><svg id="Ebene_1" xmlns="http://www.w3.org/2000/svg" viewBox="0 0 344.78 344.78"><rect x="37.89" y="37.89" width="269" height="269" transform="translate(-48.56 69.35) rotate(-20)" style="stroke-width:0px;"/><path d="m126.19,208.08c7.7,0,13.9,6.2,13.9,13.9s-6.2,13.9-13.9,13.9-14-6.2-14-13.9c0-7.6,6.3-13.9,14-13.9m18.9-24.5v-29.3c0-11.1-3.3-26.2-22.3-26.2-5.3,0-10.6,3.3-10.6,3.3v-41.2h-11.8v157.8h11.8v-4.3c4.1,2.7,9,4.3,14.2,4.3,14.3,0,25.9-11.6,25.9-25.9s-11.6-25.9-25.9-25.9c-5.3,0-10.2,1.5-14.2,4.2v-49.4c0-5.5,4.2-10.6,10.4-10.6,5.7,0,10.3,4.6,10.3,10.6v32.6h12.2Z" style="fill:#fff; stroke-width:0px;"/><rect x="159.49" y="128.38" width="11.8" height="55.2" style="fill:#fff; stroke-width:0px;"/><rect x="212.49" y="128.38" width="11.7" height="119.5" style="fill:#fff; stroke-width:0px;"/><path d="m191.99,198.98v27.2c0,6.4-5.2,10.4-10.4,10.4-5.8,0-10.2-5.2-10.2-10.5v-27.1h-11.7v24.3c0,15.6,5.9,25.2,22.4,25.2,15.4,0,22.3-9.6,22.3-26.3v-23.3h-12.4v.1Z" style="fill:#fff; stroke-width:0px;"/><path d="m87.49,156.58c-1.9-2.7-6.4-4.5-9.4-5.6-1.7-.6-4.3-1.6-6.6-2.4-2.2-.7-4.1-2.8-4.1-5.2,0-2.6,2.2-4.8,4.9-4.8s4.8,2,4.9,4.6h10.6c-.1-8.2-7-14.8-15.5-14.8s-15.2,6.5-15.4,14.6c.4,9,6.3,13.8,11.9,15.4,1.5.4,5.2,1.6,5.2,1.6h0c2.7.7,4.7,3.1,4.7,6,0,3.4-2.9,6.2-6.4,6.2s-6.4-2.8-6.4-6.2v-.4h-11.7v.4c0,9.7,8.1,17.6,18.1,17.6s18.1-7.9,18.1-17.6c-.1-3.9-1.1-6.7-2.9-9.4" style="fill:#fff; stroke-width:0px;"/><polygon points="271.89 163.68 262.89 154.88 244.89 178.48 251.69 183.08 271.89 163.68" style="fill:#fff; stroke-width:0px;"/><path d="m253.79,209.18c5.3-1.3,10.6.6,13.9,4.5l-24.4,7.8c.5-5.8,4.6-10.9,10.5-12.3m28.9,8.5c-.2-.7-.4-1.5-.4-1.5h0c-3.5-13.6-17.4-22-31.1-18.6-13.8,3.4-22.3,17.3-18.9,31.2,3.4,13.8,17.1,21.3,31.2,18.9,7.2-1.2,13.6-6,16.9-9.6l-10.6-6.5c-1.5,1.2-4.4,3.7-9.3,4.6-5.7,1.1-11.4-1.1-14.6-5.4l37-12.4q0-.2-.2-.7" style="fill:#fff; stroke-width:0px;"/></svg>